<svg width="385" height="385" viewBox="0 0 385 385" fill="none" xmlns="http://www.w3.org/2000/svg">
<path d="M384.997 103.916C385.099 117.591 382.476 131.15 377.282 143.802C372.088 156.454 364.426 167.946 354.744 177.61L342.711 189.634L293.377 239.106L241.808 290.64L217.314 265.56C212.244 260.473 209.397 253.586 209.397 246.407C209.397 239.227 212.244 232.34 217.314 227.253L249.372 195.131L298.878 145.83L299.995 144.542C307.389 136.706 311.503 126.34 311.492 115.569C311.482 104.799 307.348 94.4407 299.938 86.619C292.529 78.7973 282.406 74.105 271.645 73.5044C260.884 72.9038 250.301 76.4402 242.067 83.3887L198.319 39.6714L206.914 30.5671C216.583 20.878 228.07 13.1904 240.716 7.94518C253.363 2.69993 266.921 0 280.614 0C294.307 0 307.865 2.69993 320.511 7.94518C333.158 13.1904 344.645 20.878 354.314 30.5671C364.072 40.1252 371.814 51.54 377.084 64.1381C382.354 76.7362 385.045 90.2619 384.997 103.916Z" fill="#FF6E1F"/>
<path d="M289.423 142.996L265.788 166.444C260.697 171.511 253.805 174.355 246.621 174.355C239.437 174.355 232.545 171.511 227.455 166.444L195.998 134.837L146.321 85.1925C138.696 76.6959 128.006 71.5742 116.602 70.954C105.198 70.3339 94.015 74.2661 85.5126 81.8857C77.0102 89.5054 71.885 100.188 71.2644 111.584C70.6439 122.98 74.5787 134.156 82.2035 142.653L39.2298 185.597L30.6351 177.008C15.3044 161.866 5.10664 142.304 1.47464 121.071C-2.15735 99.8383 0.959396 78.0016 10.3862 58.63C19.8131 39.2583 35.0765 23.3249 54.0319 13.0689C72.9873 2.81296 94.6815 -1.25001 116.067 1.45049C139.809 4.59046 161.811 15.5991 178.551 32.7143L289.423 142.996Z" fill="#333EDE"/>
<path d="M185.855 345.265L179.066 352.05C162.358 369.224 140.345 380.268 116.582 383.399C101.093 385.237 85.389 383.558 70.6399 378.487C55.8908 373.415 42.4772 365.084 31.3986 354.112C20.32 343.139 11.862 329.81 6.65513 315.117C1.4483 300.425 -0.373146 284.747 1.32643 269.252C4.24127 245.326 15.249 223.114 32.5254 206.295L143.14 95.7559L166.517 119.118C171.587 124.205 174.434 131.092 174.434 138.271C174.434 145.451 171.587 152.338 166.517 157.424L134.975 188.946L86.5001 237.473C78.6366 244.999 73.8058 255.144 72.9208 265.989C72.2996 274.354 74.1434 282.718 78.2248 290.048C82.3062 297.378 88.4461 303.353 95.887 307.235C103.328 311.118 111.743 312.737 120.095 311.894C128.446 311.051 136.368 307.782 142.882 302.491L185.855 345.265Z" fill="#FF6E1F"/>
<path d="M354.142 353.854C344.56 363.462 333.174 371.086 320.638 376.288C308.101 381.49 294.661 384.168 281.086 384.168C267.512 384.168 254.072 381.49 241.535 376.288C228.999 371.086 217.613 363.462 208.031 353.854L196.17 341.915L146.321 292.443L95.5262 241.768L118.904 218.406C124.009 213.334 130.914 210.487 138.113 210.487C145.311 210.487 152.218 213.334 157.322 218.406L237.253 298.283C244.851 306.146 255.057 310.971 265.96 311.854C274.331 312.475 282.7 310.632 290.035 306.553C297.37 302.475 303.349 296.338 307.234 288.903C311.119 281.467 312.74 273.057 311.896 264.711C311.053 256.365 307.782 248.449 302.487 241.94L345.461 198.995L354.056 207.584C373.418 227 384.297 253.29 384.314 280.701C384.33 308.113 373.481 334.415 354.142 353.854Z" fill="#333EDE"/>
</svg>
